<?xml version="1.0" standalone="no"?>
<!DOCTYPE svg PUBLIC "-//W3C//DTD SVG 20010904//EN"
 "http://www.w3.org/TR/2001/REC-SVG-20010904/DTD/svg10.dtd">
<svg version="1.0" xmlns="http://www.w3.org/2000/svg"
 width="225.000000pt" height="225.000000pt" viewBox="0 0 225.000000 225.000000"
 preserveAspectRatio="xMidYMid meet">

<g transform="translate(0.000000,225.000000) scale(0.100000,-0.100000)"
fill="#000000" stroke="none">
<path d="M1615 2060 c-11 -5 -87 -76 -170 -159 -83 -84 -158 -151 -168 -151
-10 0 -41 18 -70 39 -57 43 -94 56 -131 47 -24 -6 -394 -274 -449 -325 -16
-14 -41 -48 -55 -76 l-27 -50 0 -500 c0 -500 0 -500 23 -542 30 -57 80 -105
138 -134 49 -24 50 -24 394 -24 329 0 347 1 390 21 62 29 105 67 138 123 l27
46 3 495 c2 442 1 500 -14 539 -22 57 -61 100 -156 172 -47 36 -78 67 -78 78
0 10 65 81 150 163 159 153 171 172 133 216 -22 25 -51 33 -78 22z m-448 -415
c4 -11 -18 -41 -66 -89 -78 -81 -85 -103 -46 -141 39 -40 62 -32 149 52 73 71
80 75 93 58 19 -27 16 -113 -6 -161 -39 -85 -149 -139 -236 -115 -92 25 -151
90 -162 178 -15 127 83 232 215 233 38 0 54 -4 59 -15z m-8 -541 c12 -15 21
-35 21 -44 0 -11 10 -20 29 -23 62 -13 130 -102 131 -171 0 -39 -35 -76 -72
-76 -33 0 -68 31 -68 60 0 38 -35 60 -94 60 -66 0 -86 -16 -86 -69 0 -53 13
-61 97 -61 108 0 172 -38 208 -122 44 -108 -18 -255 -116 -275 -19 -3 -29 -12
-29 -23 0 -31 -39 -70 -71 -70 -34 0 -69 31 -69 60 0 11 -8 23 -17 26 -86 26
-143 96 -143 175 0 54 23 79 71 79 32 0 69 -41 69 -76 0 -31 27 -44 89 -44 59
0 91 24 91 67 0 48 -25 63 -104 63 -122 1 -193 51 -216 154 -24 109 28 211
124 243 21 6 32 18 38 39 15 58 81 74 117 28z"/>
</g>
</svg>
